# xmcd
#
# Track frame offsets:
#	150
#	11968
#	20843
#	31318
#	40658
#	56845
#	70928
#	81050
#	90990
#	99353
#	110148
#	121278
#	131395
#	142118
#
# Disc length: 2068 seconds
#
# Revision: 1
# Processed by: cddbd v1.5PL3 Copyright (c) Steve Scherf et al.
# Submitted via: CDex 1.50Beta5
#
DISCID=bd08120e
DTITLE=THE BEACH BOYS - サーフィン・USA
DYEAR=1900
DGENRE=R&B
TTITLE0=カルフォルニア・ガールズ
TTITLE1=ダンス・ダンス・ダンス
TTITLE2=踊ろよ、ベイビー
TTITLE3=ファン・ファン・ファン
TTITLE4=グッド・バイブレーション
TTITLE5=ヘルプ・ミー・ロンダ
TTITLE6=アイ・ゲット・アラウンド
TTITLE7=イン・マイ・ルーム
TTITLE8=リトル・ホンダ
TTITLE9=サーファー・ガール
TTITLE10=サーフィン USA
TTITLE11=ウエンディ
TTITLE12=素敵じゃないか
TTITLE13=スループ・ジョン・B
EXTD=
EXTT0=
EXTT1=
EXTT2=
EXTT3=
EXTT4=
EXTT5=
EXTT6=
EXTT7=
EXTT8=
EXTT9=
EXTT10=
EXTT11=
EXTT12=
EXTT13=
PLAYORDER=
